<svg viewBox="0 0 41 18" xmlns:xlink="http://www.w3.org/1999/xlink" xmlns="http://www.w3.org/2000/svg" width="41" height="18" aria-label="Apple Pay"><path d="M7.47 2.288c-.48.6-1.246 1.072-2.013 1.005-.095-.81.28-1.672.72-2.204C6.654.473 7.493.034 8.172 0c.08.844-.232 1.672-.703 2.288zm.695 1.165c-1.11-.067-2.06.667-2.588.667-.535 0-1.341-.633-2.22-.616-1.142.017-2.204.7-2.787 1.79-1.198 2.178-.311 5.403.847 7.176.567.878 1.246 1.84 2.14 1.807.846-.034 1.182-.583 2.204-.583 1.03 0 1.326.583 2.22.566.926-.017 1.51-.878 2.076-1.756.647-.996.91-1.967.927-2.018-.016-.017-1.79-.734-1.805-2.896-.016-1.807 1.397-2.668 1.461-2.718-.798-1.25-2.044-1.385-2.475-1.419zm6.412-2.448v13.162h1.933v-4.5h2.675c2.443 0 4.16-1.773 4.16-4.34 0-2.566-1.685-4.322-4.096-4.322h-4.672zm1.933 1.722h2.228c1.677 0 2.635.946 2.635 2.609s-.958 2.617-2.643 2.617h-2.22V2.727zM26.875 14.27c1.214 0 2.34-.65 2.85-1.68h.04v1.578h1.79V7.616c0-1.9-1.438-3.124-3.65-3.124-2.052 0-3.57 1.24-3.625 2.946h1.74c.144-.81.855-1.342 1.83-1.342 1.181 0 1.844.582 1.844 1.655v.726l-2.412.152c-2.244.143-3.458 1.114-3.458 2.803 0 1.705 1.254 2.837 3.05 2.837zm.519-1.562c-1.03 0-1.685-.524-1.685-1.326 0-.827.63-1.309 1.837-1.385l2.148-.143v.743c0 1.233-.99 2.11-2.3 2.11zm6.548 5.04c1.885 0 2.771-.76 3.546-3.065l3.394-10.064h-1.965l-2.276 7.776h-.04l-2.275-7.776h-2.02l3.273 9.583-.175.583c-.296.987-.775 1.367-1.63 1.367a6 6 0 01-.566-.033v1.578c.111.034.59.051.734.051z"></path></svg>