<svg xmlns:xlink="http://www.w3.org/1999/xlink" xmlns="http://www.w3.org/2000/svg" viewBox="-5 0 36 24" width="44" height="44">
      <path d="M16.9219 12.5078C16.9219 12.5859 16.8047 14.8906 19.3438 16.1016C18.875 17.5469 17.2344 20.75 15.3203 20.75C14.2266 20.75 13.6016 20.0469 12.3516 20.0469C11.0625 20.0469 10.3594 20.75 9.38281 20.75C7.50781 20.8281 5.71094 17.3125 5.20312 15.8672C4.8125 14.7734 4.65625 13.7188 4.65625 12.7031C4.65625 9.22656 6.96094 7.54688 9.14844 7.50781C10.2031 7.50781 11.5312 8.25 12.1172 8.25C12.6641 8.25 14.1875 7.35156 15.5938 7.46875C17.0391 7.58594 18.1328 8.13281 18.875 9.1875C17.5859 10.0078 16.9219 11.0625 16.9219 12.5078ZM14.7344 6.10156C13.9531 7 13.0156 7.50781 12 7.42969C11.9219 6.375 12.3125 5.39844 13.0156 4.61719C13.6406 3.91406 14.7344 3.32812 15.6719 3.25C15.6719 3.67969 15.7891 4.85156 14.7344 6.10156Z" fill="#383838"></path>
        </svg>