<svg xmlns:xlink="http://www.w3.org/1999/xlink" data-name="Layer 1" xmlns="http://www.w3.org/2000/svg" viewBox="0 0 24 24" height="24" width="24"><path d="M11.9609 5.75L12.4297 5.32031C13.7188 4.03125 15.5547 3.44531 17.3125 3.75781C20.0078 4.1875 22 6.53125 22 9.26562V9.46094C22 11.1016 21.2969 12.6641 20.125 13.7578L13.0547 20.3594C12.7812 20.6328 12.3906 20.75 12 20.75C11.5703 20.75 11.1797 20.6328 10.9062 20.3594L3.83594 13.7578C2.66406 12.6641 2 11.1016 2 9.46094V9.26562C2 6.53125 3.95312 4.1875 6.64844 3.75781C8.40625 3.44531 10.2422 4.03125 11.5312 5.32031L11.9609 5.75ZM11.9609 7.54688L10.6328 6.17969C9.65625 5.20312 8.25 4.73438 6.84375 4.96875C4.77344 5.32031 3.21094 7.11719 3.21094 9.26562V9.46094C3.21094 10.75 3.75781 11.9609 4.69531 12.8203L11.7656 19.4219C11.8047 19.5 11.8828 19.5 11.9609 19.5C12.0781 19.5 12.1562 19.5 12.1953 19.4219L19.2656 12.8203C20.2031 11.9609 20.75 10.75 20.75 9.46094V9.26562C20.75 7.11719 19.1875 5.32031 17.1172 4.96875C15.7109 4.73438 14.3047 5.20312 13.3281 6.17969L11.9609 7.54688Z" fill-rule="evenodd" fill="#333333"></path><title fill="#333333">View Wishlist</title></svg>