<svg xmlns:xlink="http://www.w3.org/1999/xlink" xmlns="http://www.w3.org/2000/svg" viewBox="0 0 21 20" height="20" width="20"><path d="M19.8047 18.9453L14.2578 13.4375C15.5078 11.9922 16.2109 10.1562 16.2109 8.125C16.2109 3.67188 12.5391 0 8.08594 0C3.59375 0 0 3.67188 0 8.125C0 12.6172 3.63281 16.25 8.08594 16.25C10.0781 16.25 11.9141 15.5469 13.3594 14.2969L18.8672 19.8438C19.0234 19.9609 19.1797 20 19.375 20C19.5312 20 19.6875 19.9609 19.8047 19.8438C20.0391 19.6094 20.0391 19.1797 19.8047 18.9453ZM8.125 15C4.29688 15 1.25 11.9141 1.25 8.125C1.25 4.33594 4.29688 1.25 8.125 1.25C11.9141 1.25 15 4.33594 15 8.125C15 11.9531 11.9141 15 8.125 15Z" fill-rule="evenodd" fill="#333333"></path></svg>