<svg xmlns:xlink="http://www.w3.org/1999/xlink" width="20" height="20" data-name="Layer 1" xmlns="http://www.w3.org/2000/svg" viewBox="0 0 16 20" class="sc-dvwKko iFaYnd"><path d="M11.125 7.5C11.125 9.25781 9.71875 10.625 8 10.625C6.24219 10.625 4.875 9.25781 4.875 7.5C4.875 5.78125 6.24219 4.375 8 4.375C9.71875 4.375 11.125 5.78125 11.125 7.5ZM8 9.375C9.01562 9.375 9.875 8.55469 9.875 7.5C9.875 6.48438 9.01562 5.625 8 5.625C6.94531 5.625 6.125 6.48438 6.125 7.5C6.125 8.55469 6.94531 9.375 8 9.375ZM15.5 7.5C15.5 10.9375 10.9297 16.9922 8.89844 19.5312C8.42969 20.1172 7.53125 20.1172 7.0625 19.5312C5.03125 16.9922 0.5 10.9375 0.5 7.5C0.5 3.35938 3.82031 0 8 0C12.1406 0 15.5 3.35938 15.5 7.5ZM8 1.25C4.52344 1.25 1.75 4.0625 1.75 7.5C1.75 8.125 1.94531 8.94531 2.375 10C2.80469 11.0156 3.39062 12.1094 4.09375 13.2031C5.42188 15.3516 6.98438 17.4219 8 18.6719C8.97656 17.4219 10.5391 15.3516 11.8672 13.2031C12.5703 12.1094 13.1562 11.0156 13.5859 10C14.0156 8.94531 14.25 8.125 14.25 7.5C14.25 4.0625 11.4375 1.25 8 1.25Z" fill="#333333"></path></svg>