<svg xmlns:xlink="http://www.w3.org/1999/xlink" xmlns="http://www.w3.org/2000/svg" viewBox="0 0 60 40" height="40" width="60"><rect x="0.5" y="0.5" width="59" height="39" rx="3.5" fill="#EB0000" stroke="#DDDDDD"></rect><path d="M15.1377 1V15.8599C15.463 15.2828 15.8331 14.7856 16.2526 14.3704C18.4354 12.1971 21.4868 11.7315 23.3289 13.5646C25.171 15.3978 24.7031 18.4354 22.5204 20.6075C21.1968 21.9235 19.02 22.6483 15.9886 22.8864C18.5061 25.1968 21.1344 26.3333 23.8887 26.3333C24.3283 26.3333 24.6843 26.6875 24.6843 27.125C24.6843 27.5625 24.3283 27.9167 23.8887 27.9167C20.7937 27.9167 17.872 26.6864 15.1377 24.2574V39H13.5466V24.2574C10.8123 26.6852 7.89053 27.9167 4.79555 27.9167C4.35593 27.9167 4 27.5625 4 27.125C4 26.6875 4.35593 26.3333 4.79555 26.3333C7.55227 26.3333 10.1817 25.1957 12.7015 22.8828C9.69613 22.6401 7.53695 21.9164 6.22164 20.6075C4.03889 18.4354 3.57099 15.3978 5.41313 13.5646C7.25527 11.7327 10.3066 12.1971 12.4906 14.3692C12.8842 14.7621 13.2366 15.2254 13.5478 15.7614L13.5466 1H15.1377ZM31.9267 21.5833C32.5561 21.5833 33.1607 21.7159 33.7418 21.9798C34.324 22.2448 34.8261 22.6213 35.2468 23.1092L34.232 24.0733C33.5414 23.3473 32.7647 22.9849 31.9008 22.9849C31.1724 22.9849 30.5584 23.2323 30.0598 23.7273C29.5613 24.2222 29.3114 24.8321 29.3114 25.5569C29.3114 26.0612 29.4222 26.5104 29.6426 26.9022C29.8642 27.2939 30.1765 27.6012 30.5808 27.8252C30.985 28.048 31.4329 28.1594 31.9267 28.1594C32.3487 28.1594 32.7329 28.082 33.0817 27.9249C33.4306 27.7689 33.8136 27.4851 34.232 27.0722L35.2162 28.0926C34.6528 28.6391 34.1213 29.0191 33.6204 29.2302C33.1206 29.4414 32.5478 29.5469 31.9067 29.5469C30.7222 29.5469 29.7522 29.1728 28.9979 28.4257C28.2436 27.6786 27.8665 26.7204 27.8665 25.5522C27.8665 24.7957 28.0385 24.1249 28.3815 23.5373C28.7257 22.9497 29.2183 22.477 29.8583 22.1193C30.4983 21.7616 31.1877 21.5833 31.9267 21.5833ZM39.8669 21.7745L42.798 29.3557H41.2906L40.6954 27.7935H37.5875L36.9664 29.3557H35.459L38.396 21.7745H39.8669ZM44.9725 21.7745C45.8152 21.7745 46.4151 21.8484 46.7734 21.9973C47.1305 22.1475 47.4181 22.3961 47.635 22.7433C47.853 23.0904 47.9615 23.5009 47.9615 23.9748C47.9615 24.4732 47.8412 24.8896 47.602 25.225C47.3615 25.5593 47.0009 25.8126 46.5165 25.985L48.3197 29.3557H46.7345L45.0197 26.1445H44.8853V29.3557H43.4357V21.7745H44.9725ZM50.6746 21.7745C51.7824 21.7745 52.6075 21.9106 53.1449 22.1838C53.6847 22.4571 54.1278 22.9016 54.4767 23.5162C54.8256 24.1307 55 24.8497 55 25.6707C55 26.2548 54.9022 26.7919 54.7065 27.281C54.5121 27.7712 54.2422 28.177 53.8992 28.5007C53.555 28.8233 53.1838 29.0461 52.7831 29.1693C52.3823 29.2936 51.6882 29.3557 50.7005 29.3557H48.9562V21.7745H50.6746ZM50.8926 23.1655H50.4V27.9436H51.0741C51.7365 27.9436 52.2173 27.8674 52.5167 27.7161C52.8149 27.566 53.0589 27.3115 53.2486 26.9538C53.4395 26.596 53.5338 26.1562 53.5338 25.6343C53.5338 24.8309 53.3075 24.207 52.855 23.7636C52.4483 23.3649 51.7942 23.1655 50.8926 23.1655ZM39.1421 23.7836L38.1261 26.3873H40.1521L39.1421 23.7836ZM44.8853 23.1854V24.7371H45.3403C45.8035 24.7371 46.1217 24.6785 46.2961 24.5577C46.4705 24.4368 46.5577 24.2375 46.5577 23.9595C46.5577 23.7953 46.5153 23.651 46.4281 23.5291C46.3421 23.4071 46.2266 23.3191 46.0816 23.2664C45.9567 23.2194 45.7445 23.1948 45.4416 23.1878L44.8853 23.1866V23.1854ZM17.377 15.4904C16.4047 16.458 15.6975 18.1164 15.2803 20.5336L15.2096 20.9688L15.1742 21.2174L15.1825 21.2737L15.1919 21.3511L15.5408 21.3312C18.3163 21.1517 20.1821 20.5712 21.2428 19.6329L21.396 19.4886C23.0578 17.8349 23.3171 15.793 22.2033 14.6859C21.0908 13.5787 19.04 13.8356 17.377 15.4904ZM6.53869 14.6859C5.4261 15.793 5.68421 17.8349 7.3472 19.4886C8.37493 20.5125 10.2878 21.1423 13.2024 21.3312L13.5466 21.3511V21.0743L13.5324 20.9688C13.127 18.3135 12.3939 16.5143 11.3638 15.4904C9.70202 13.8367 7.65128 13.5787 6.53869 14.6859ZM31.9892 11.0278C32.6527 11.0278 33.2715 11.1498 33.849 11.3937C34.3358 11.6001 34.8119 11.9543 35.2786 12.4551L34.258 13.4602C33.6121 12.78 32.859 12.4399 31.9998 12.4399C31.2502 12.4399 30.6232 12.6873 30.1164 13.1823C29.6108 13.6772 29.3586 14.2777 29.3586 14.9861C29.3586 15.718 29.6202 16.3384 30.1459 16.8462C30.6703 17.3552 31.3174 17.6086 32.0882 17.6086C32.5879 17.6086 33.011 17.5042 33.354 17.2954C33.6981 17.0855 33.9751 16.7571 34.1849 16.3102H31.9798V14.9568H35.8125L35.8231 15.2758C35.8231 15.9396 35.6511 16.5683 35.3046 17.1617C34.9604 17.7564 34.5125 18.2102 33.9633 18.5222C33.4153 18.8354 32.7706 18.9914 32.0316 18.9914C31.242 18.9914 30.5348 18.8213 29.916 18.4788C29.2961 18.1375 28.8058 17.6508 28.4452 17.0175C28.0845 16.3853 27.903 15.7039 27.903 14.972C27.903 13.9681 28.2366 13.0955 28.9036 12.3531C29.6933 11.4699 30.7234 11.0289 31.9904 11.0289L31.9892 11.0278ZM38.1108 11.219V18.8002H36.6706V11.219H38.1108ZM42.7403 11.219V12.6264H40.3937V14.0021H42.7391V15.3884H40.3937V18.8002H38.9594V11.219H42.7403ZM47.7988 11.219V12.6404H46.4116V18.8002H44.9407V12.6404H43.5889V11.219H47.7988Z" fill="#FFFFFF"></path></svg>