<svg viewBox="0 0 34 27" xmlns:xlink="http://www.w3.org/1999/xlink" xmlns="http://www.w3.org/2000/svg" width="34" height="27" aria-label="Maestro"><g fill="none"><path fill="#000" d="M10.376 26.441v-1.735a1.032 1.032 0 00-1.089-1.096 1.077 1.077 0 00-.976.491 1.019 1.019 0 00-.917-.491.919.919 0 00-.813.41v-.34h-.604v2.761h.61v-1.53a.645.645 0 01.679-.734c.4 0 .604.26.604.729v1.535h.61v-1.53a.65.65 0 01.679-.735c.413 0 .61.26.61.73v1.535h.607zm3.397-1.38v-1.379h-.61v.336a1.048 1.048 0 00-.87-.405c-.803 0-1.453.647-1.453 1.446 0 .799.65 1.446 1.452 1.446.34.013.664-.138.871-.405v.336h.604l.006-1.374zm-2.244 0a.836.836 0 01.869-.785.836.836 0 01-.027 1.671.832.832 0 01-.848-.886h.006zm15.148-1.446c.198 0 .396.037.58.11.177.07.338.175.474.307.134.13.24.287.313.46.152.37.152.786 0 1.157a1.392 1.392 0 01-.313.46 1.441 1.441 0 01-.474.306 1.64 1.64 0 01-1.19 0 1.414 1.414 0 01-.781-.766 1.525 1.525 0 010-1.157 1.41 1.41 0 01.78-.767c.192-.079.398-.119.605-.118l.006.008zm0 .579a.89.89 0 00-.346.064.805.805 0 00-.459.472c-.088.23-.088.485 0 .716a.84.84 0 00.183.29c.079.079.173.14.276.182a.95.95 0 00.688 0 .82.82 0 00.29-.182.857.857 0 00.184-.29c.088-.23.088-.486 0-.717a.85.85 0 00-.183-.29.835.835 0 00-.29-.181.9.9 0 00-.35-.081l.007.017zm-9.623.868c0-.868-.54-1.447-1.315-1.447a1.45 1.45 0 00-1.432 1.467 1.45 1.45 0 001.472 1.426c.414.014.818-.124 1.136-.388l-.29-.445c-.23.183-.514.285-.808.29a.77.77 0 01-.83-.678h2.058c.01-.072.01-.144.01-.225zm-2.064-.243a.712.712 0 01.728-.668.686.686 0 01.703.67l-1.431-.002zm4.605-.434a1.787 1.787 0 00-.871-.237c-.331 0-.529.121-.529.324 0 .202.21.237.47.272l.291.04c.604.087.97.341.97.827 0 .486-.465.903-1.263.903a2.013 2.013 0 01-1.2-.359l.29-.468c.267.196.593.298.924.289.413 0 .633-.122.633-.336 0-.156-.157-.243-.488-.289l-.29-.04c-.621-.087-.958-.365-.958-.816 0-.55.453-.885 1.161-.885.397-.014.789.087 1.13.289l-.27.486zm2.903-.156h-.984v1.246c0 .29.099.463.4.463.19-.006.373-.06.535-.156l.174.515c-.226.14-.488.215-.755.214-.714 0-.964-.382-.964-1.024v-1.258h-.563v-.55h.563v-.839h.61v.84h.984v.549zm2.088-.62c.147.001.292.027.43.076l-.186.578a1.013 1.013 0 00-.378-.069c-.394 0-.58.255-.58.712v1.547h-.604v-2.762h.598v.335a.82.82 0 01.732-.405l-.012-.011zm4.175 2.43a.276.276 0 01.2.079.266.266 0 01.001.387.296.296 0 01-.2.081.289.289 0 01-.262-.168.266.266 0 01.061-.3.278.278 0 01.186-.078h.014zm0 .49a.206.206 0 00.151-.064.215.215 0 00.059-.191.212.212 0 00-.21-.174.205.205 0 00-.084.018.203.203 0 00-.07.046.214.214 0 000 .289.219.219 0 00.154.064v.011zm.018-.345a.117.117 0 01.075.023.071.071 0 01.026.06.068.068 0 01-.02.053.105.105 0 01-.06.026l.083.095h-.066l-.079-.095h-.026v.095h-.055v-.266l.122.009zm-.064.05v.069h.064a.07.07 0 00.035 0 .03.03 0 000-.026.03.03 0 000-.026.053.053 0 00-.035 0l-.064-.018z"></path><path fill="#7673C0" d="M12.481 2.604h9.146v16.375h-9.146z"></path><path fill="#EB001B" d="M13.062 10.793a10.384 10.384 0 013.992-8.19C12.768-.751 6.614-.262 2.916 3.728a10.384 10.384 0 000 14.129c3.698 3.99 9.852 4.478 14.138 1.123a10.38 10.38 0 01-3.992-8.186z"></path><path fill="#00A1DF" d="M32.969 17.253v-.332h.136v-.071h-.345v.071h.136v.344l.073-.012zm.67 0v-.414h-.104l-.122.297-.122-.297h-.107v.415h.075v-.311l.113.27h.079l.113-.27v.314l.075-.003zm.326-6.46a10.409 10.409 0 01-5.885 9.363 10.486 10.486 0 01-11.026-1.177 10.4 10.4 0 003.994-8.188c0-3.195-1.472-6.213-3.994-8.187a10.483 10.483 0 0111.029-1.18 10.409 10.409 0 015.885 9.366l-.003.003z"></path></g></svg>