<svg viewBox="0 0 60 40" xmlns:xlink="http://www.w3.org/1999/xlink" xmlns="http://www.w3.org/2000/svg" width="60" height="40" aria-label="Mastercard"><g fill="none"><path d="M9.17 2.73h41.66v34.54H9.17z" fill="none"></path><path fill="#000" d="M19.472 32.938v-1.721c0-.66-.397-1.09-1.079-1.09-.34 0-.709.115-.964.487-.199-.315-.483-.487-.908-.487a.914.914 0 00-.795.401v-.344h-.596v2.754h.596v-1.52c0-.488.255-.717.653-.717.397 0 .596.258.596.717v1.52h.596v-1.52c0-.488.283-.717.652-.717.398 0 .596.258.596.717v1.52h.653zm8.826-2.754h-.965v-.832h-.596v.832h-.54v.545h.54v1.263c0 .63.255 1.004.936 1.004.256 0 .54-.086.738-.201l-.17-.517a.927.927 0 01-.511.144c-.284 0-.397-.172-.397-.46v-1.233h.965v-.545zm5.05-.057a.799.799 0 00-.709.401v-.344h-.596v2.754h.596v-1.549c0-.459.2-.717.568-.717.114 0 .255.029.369.057l.17-.574c-.113-.028-.284-.028-.397-.028zm-7.633.287c-.284-.201-.681-.287-1.107-.287-.68 0-1.135.344-1.135.89 0 .458.34.716.937.802l.283.03c.313.056.483.143.483.286 0 .2-.227.344-.624.344-.398 0-.71-.143-.909-.287l-.283.46c.312.229.738.344 1.163.344.795 0 1.249-.373 1.249-.89 0-.487-.37-.746-.937-.832l-.283-.028c-.256-.03-.454-.086-.454-.259 0-.2.198-.315.51-.315.34 0 .681.143.852.23l.255-.488zm15.835-.287a.802.802 0 00-.71.401v-.344h-.595v2.754h.596v-1.549c0-.459.198-.717.567-.717.114 0 .256.029.37.057l.17-.574c-.114-.028-.284-.028-.398-.028zm-7.605 1.434c0 .832.567 1.435 1.447 1.435.397 0 .681-.086.965-.316l-.284-.488c-.227.172-.454.259-.71.259-.482 0-.822-.345-.822-.89 0-.516.34-.86.823-.89.255 0 .482.087.71.259l.283-.488c-.284-.23-.568-.315-.965-.315-.88 0-1.447.602-1.447 1.434zm5.505 0v-1.377h-.596v.344c-.198-.258-.482-.401-.851-.401-.766 0-1.362.602-1.362 1.434s.596 1.435 1.362 1.435c.397 0 .681-.144.851-.402v.344h.596v-1.377zm-2.185 0c0-.488.312-.89.823-.89.483 0 .823.374.823.89 0 .488-.34.89-.823.89-.51-.03-.823-.402-.823-.89zm-7.123-1.434c-.794 0-1.362.574-1.362 1.434s.568 1.435 1.39 1.435c.398 0 .795-.115 1.107-.373l-.284-.43c-.227.171-.51.286-.794.286-.369 0-.738-.172-.823-.66h2.015v-.23c.028-.888-.483-1.462-1.249-1.462zm0 .516c.37 0 .624.23.681.66h-1.419c.057-.373.312-.66.738-.66zm14.785.918v-2.467h-.596v1.434c-.198-.258-.482-.401-.851-.401-.766 0-1.362.602-1.362 1.434s.596 1.435 1.362 1.435c.397 0 .681-.144.851-.402v.344h.596v-1.377zm-2.185 0c0-.488.312-.89.823-.89.483 0 .823.374.823.89 0 .488-.34.89-.823.89-.51-.03-.823-.402-.823-.89zm-19.921 0v-1.377h-.596v.344c-.2-.258-.483-.401-.852-.401-.766 0-1.362.602-1.362 1.434s.596 1.435 1.362 1.435c.398 0 .681-.144.852-.402v.344h.596v-1.377zm-2.214 0c0-.488.312-.89.823-.89.482 0 .823.374.823.89 0 .488-.34.89-.823.89-.51-.03-.823-.402-.823-.89z"></path><path fill="#FF5F00" d="M25.516 9.27h8.94v16.238h-8.94z"></path><path fill="#EB001B" d="M26.084 17.389c0-3.3 1.532-6.225 3.888-8.119a10.084 10.084 0 00-6.3-2.209c-5.647 0-10.216 4.619-10.216 10.328 0 5.71 4.569 10.328 10.216 10.328a10.08 10.08 0 006.3-2.21c-2.356-1.864-3.888-4.819-3.888-8.118z"></path><path fill="#F79E1B" d="M46.517 17.389c0 5.71-4.57 10.328-10.217 10.328a10.08 10.08 0 01-6.3-2.21c2.384-1.893 3.888-4.819 3.888-8.118 0-3.3-1.532-6.225-3.888-8.119a10.086 10.086 0 016.3-2.209c5.648 0 10.216 4.648 10.216 10.328z"></path></g></svg>