<svg xmlns:xlink="http://www.w3.org/1999/xlink" width="20" height="16" xmlns="http://www.w3.org/2000/svg" viewBox="1 -1 16 16"><path d="M0.0683594 1.125C0.0683594 0.8125 0.341797 0.5 0.693359 0.5H16.9434C17.2559 0.5 17.5684 0.8125 17.5684 1.125C17.5684 1.47656 17.2559 1.75 16.9434 1.75H0.693359C0.341797 1.75 0.0683594 1.47656 0.0683594 1.125ZM0.0683594 7.375C0.0683594 7.0625 0.341797 6.75 0.693359 6.75H16.9434C17.2559 6.75 17.5684 7.0625 17.5684 7.375C17.5684 7.72656 17.2559 8 16.9434 8H0.693359C0.341797 8 0.0683594 7.72656 0.0683594 7.375ZM16.9434 14.25H0.693359C0.341797 14.25 0.0683594 13.9766 0.0683594 13.625C0.0683594 13.3125 0.341797 13 0.693359 13H16.9434C17.2559 13 17.5684 13.3125 17.5684 13.625C17.5684 13.9766 17.2559 14.25 16.9434 14.25Z" fill="#333333"></path></svg>