<svg xmlns:xlink="http://www.w3.org/1999/xlink" data-name="Layer 1" xmlns="http://www.w3.org/2000/svg" viewBox="0 0 18 20" class="sc-fThYeS hpAnLE" width="18"  height="20" ><path d="M5.25 5V3.75C5.25 1.67969 6.89062 0 9 0C11.0703 0 12.75 1.67969 12.75 3.75V5H15.875C16.8906 5 17.75 5.85938 17.75 6.875V16.25C17.75 18.3203 16.0703 20 14 20H4C1.89062 20 0.25 18.3203 0.25 16.25V6.875C0.25 5.85938 1.07031 5 2.125 5H5.25ZM6.5 5H11.5V3.75C11.5 2.38281 10.3672 1.25 9 1.25C7.59375 1.25 6.5 2.38281 6.5 3.75V5ZM2.125 6.25C1.77344 6.25 1.5 6.5625 1.5 6.875V16.25C1.5 17.6562 2.59375 18.75 4 18.75H14C15.3672 18.75 16.5 17.6562 16.5 16.25V6.875C16.5 6.5625 16.1875 6.25 15.875 6.25H12.75V9.375C12.75 9.72656 12.4375 10 12.125 10C11.7734 10 11.5 9.72656 11.5 9.375V6.25H6.5V9.375C6.5 9.72656 6.1875 10 5.875 10C5.52344 10 5.25 9.72656 5.25 9.375V6.25H2.125Z" fill-rule="evenodd" fill="#333333"></path></svg>