<svg xmlns:xlink="http://www.w3.org/1999/xlink" xmlns="http://www.w3.org/2000/svg" height="20" width="20" viewBox="0 0 18 20"><path fill-rule="evenodd" d="M9 10C11.7344 10 14 7.77344 14 5C14 2.26562 11.7344 0 9 0C6.22656 0 4 2.26562 4 5C4 7.77344 6.22656 10 9 10ZM9 1.25C11.0312 1.25 12.75 2.96875 12.75 5C12.75 7.07031 11.0312 8.75 9 8.75C6.92969 8.75 5.25 7.07031 5.25 5C5.25 2.96875 6.92969 1.25 9 1.25ZM10.9531 11.875H7.00781C3.25781 11.875 0.25 14.9219 0.25 18.6719C0.25 19.4141 0.835938 20 1.57812 20H16.3828C17.125 20 17.75 19.4141 17.75 18.6719C17.75 14.9219 14.7031 11.875 10.9531 11.875ZM16.3828 18.75H1.57812C1.53906 18.75 1.5 18.7109 1.5 18.6719C1.5 15.625 3.96094 13.125 7.00781 13.125H10.9531C14 13.125 16.5 15.625 16.5 18.6719C16.5 18.7109 16.4219 18.75 16.3828 18.75Z" fill="#333333"></path></svg>