<svg viewBox="0 0 42 18" xmlns:xlink="http://www.w3.org/1999/xlink" xmlns="http://www.w3.org/2000/svg" width="42" height="18" aria-label="Visa Electron"><g fill="#1A1F71"><path d="M28.931 17.98H27v-2.855h1.931v.32H27.39v.916h1.462v.317H27.39v.982h1.542v.32zm.486-2.98h.376v2.98h-.376V15zm1.836 1.13a.713.713 0 00-.252.043.605.605 0 00-.341.314.685.685 0 00-.061.247h1.28a.672.672 0 00-.05-.248.561.561 0 00-.324-.313.702.702 0 00-.252-.043zm.99 1.24a.599.599 0 01-.108.253.816.816 0 01-.213.2c-.086.056-.184.1-.294.13-.11.031-.227.047-.35.047-.165 0-.313-.025-.444-.075a.943.943 0 01-.336-.216.951.951 0 01-.214-.34 1.27 1.27 0 01-.074-.447c0-.165.025-.315.074-.45a.932.932 0 01.544-.567 1.15 1.15 0 01.432-.078c.155 0 .295.025.42.073a.91.91 0 01.319.21c.087.09.155.2.202.329.046.129.07.274.07.435v.135h-1.672v.02c0 .1.016.193.048.275a.595.595 0 00.357.346.81.81 0 00.282.047.836.836 0 00.205-.023.666.666 0 00.172-.065.489.489 0 00.13-.103.415.415 0 00.078-.135h.372zm1.978-.828a.472.472 0 00-.189-.29.602.602 0 00-.18-.086.781.781 0 00-.235-.032.618.618 0 00-.494.213.739.739 0 00-.14.246.98.98 0 00-.05.32c0 .122.017.23.05.327a.71.71 0 00.141.245c.06.068.133.12.217.155a.724.724 0 00.28.053.726.726 0 00.4-.1.483.483 0 00.205-.296h.369a.715.715 0 01-.105.285.798.798 0 01-.208.222c-.085.062-.184.11-.296.145a1.262 1.262 0 01-.367.051c-.16 0-.306-.025-.437-.075a.959.959 0 01-.337-.217.971.971 0 01-.217-.342 1.287 1.287 0 01-.076-.452c0-.164.025-.313.076-.447s.123-.248.216-.343a.962.962 0 01.335-.22c.13-.051.275-.077.435-.077.144 0 .274.02.39.06.114.04.214.092.297.158.084.066.15.142.199.227a.69.69 0 01.09.27h-.369zm1.234-1.176v.481h.453v.285h-.453v1.28c0 .1.023.171.07.217.047.045.12.068.22.068h.04l.048-.003a.28.28 0 00.043-.003.168.168 0 00.03-.004v.291a.613.613 0 01-.105.013 2.116 2.116 0 01-.137.005.963.963 0 01-.269-.032.404.404 0 01-.181-.1.4.4 0 01-.103-.176.942.942 0 01-.032-.262v-1.294h-.324v-.285h.324v-.48h.376zm.87.481h.355v.346h.008a.477.477 0 01.08-.151.477.477 0 01.125-.116.594.594 0 01.166-.073.709.709 0 01.338-.012v.34a.902.902 0 00-.194-.023.489.489 0 00-.365.138.446.446 0 00-.101.158.568.568 0 00-.036.206v1.32h-.376v-2.133zM38.578 18c-.164 0-.312-.026-.444-.077a.987.987 0 01-.338-.219.97.97 0 01-.216-.342 1.276 1.276 0 01-.075-.448c0-.167.025-.317.075-.45a.951.951 0 01.216-.343.97.97 0 01.338-.218c.132-.05.28-.076.444-.076.165 0 .312.026.444.076a.942.942 0 01.554.56c.05.134.076.284.076.45 0 .165-.025.315-.076.449a.942.942 0 01-.554.561c-.132.051-.28.077-.444.077zm0-.307a.757.757 0 00.29-.053.596.596 0 00.355-.398c.031-.096.047-.206.047-.328a1.07 1.07 0 00-.047-.329.656.656 0 00-.136-.245c-.06-.068-.132-.119-.218-.154s-.183-.052-.29-.052a.759.759 0 00-.291.053.588.588 0 00-.218.154.658.658 0 00-.136.244 1.07 1.07 0 00-.047.329c0 .122.016.232.048.328a.672.672 0 00.136.244.585.585 0 00.217.154.757.757 0 00.29.053zm1.47-1.846h.353v.346h.01c.147-.244.4-.366.76-.366.128 0 .243.018.345.055a.67.67 0 01.427.403.892.892 0 01.057.328v1.367h-.376v-1.308c0-.175-.048-.309-.145-.4-.096-.092-.236-.138-.42-.138a.744.744 0 00-.261.043.56.56 0 00-.33.315.666.666 0 00-.045.25v1.238h-.376v-2.133zM36.48.834c-.835 0-1.438.255-1.804 1.081l-5.16 11.616h3.686l.717-1.945h4.403l.41 1.945h3.276L39.141.834H36.48zM27.422.629c1.35 0 2.43.276 3.12.533l-.472 2.753-.311-.147a6.475 6.475 0 00-2.607-.487c-1.363 0-1.994.565-1.994 1.093-.007.595.737.986 1.955 1.574 2.009.907 2.936 2.005 2.924 3.45-.028 2.636-2.404 4.338-6.064 4.338-1.561-.015-3.065-.322-3.878-.677l.488-2.843.448.202c1.145.474 1.885.666 3.278.666 1.001 0 2.075-.389 2.084-1.24.006-.554-.45-.952-1.806-1.575-1.32-.606-3.069-1.625-3.05-3.449.021-2.468 2.444-4.19 5.885-4.19zM20.3.834l-2.15 12.697h-3.481L16.819.834H20.3zm-4.812 0l-5.53 12.697H6.273L3.195 2.472c2.21 1.1 4.183 3.296 4.818 5.325l.306 1.741L11.801.834h3.687zm21.258 3.451l.236 1.094.805 3.668h-2.89c.288-.733 1.387-3.55 1.387-3.55-.02.033.285-.736.462-1.212z" fill="#1A1F71"></path><path d="M-.008 1.085v.188c3.992.96 6.765 3.387 7.862 6.176L6.701 2.075c-.193-.734-.777-.964-1.468-.99H-.008" fill="#1A1F71"></path></g></svg>